<?xml version="1.0" encoding="UTF-8"?>
<!-- Uploaded to: SVG Repo, www.svgrepo.com, Generator: SVG Repo Mixer Tools -->
<svg xmlns="http://www.w3.org/2000/svg" width="700" height="700" viewBox="0 0 14 14">
  <path fill-opacity=".349" d="M3 0C1.355 0 0 1.355 0 3v1h1V3c0-1.11.89-2 2-2h1V0Zm2 0v1h4V0Zm5 0v1h1c1.11 0 2 .89 2 2v1h1V3c0-1.645-1.355-3-3-3ZM5 4c-.55 0-1 .45-1 1s.45 1 1 1 1-.45 1-1-.45-1-1-1ZM0 5v4h1V5Zm13 0v4h1V5ZM8.5 7l-2 2L5 8l-2 2v.5c0 .5.5.5.5.5h7s.473-.035.5-.5v-1zM0 10v1c0 1.645 1.355 3 3 3h1v-1H3c-1.11 0-2-.89-2-2v-1zm13 0v1c0 1.11-.89 2-2 2h-1v1h1c1.645 0 3-1.355 3-3v-1zm-8 3v1h4v-1zm0 0"/>
</svg>
